<?xml version="1.0" encoding="UTF-8" standalone="no"?>
<!-- Created with Inkscape (http://www.inkscape.org/) -->

<svg
   xmlns:dc="http://purl.org/dc/elements/1.1/"
   xmlns:cc="http://creativecommons.org/ns#"
   xmlns:rdf="http://www.w3.org/1999/02/22-rdf-syntax-ns#"
   xmlns:svg="http://www.w3.org/2000/svg"
   xmlns="http://www.w3.org/2000/svg"
   xmlns:sodipodi="http://sodipodi.sourceforge.net/DTD/sodipodi-0.dtd"
   xmlns:inkscape="http://www.inkscape.org/namespaces/inkscape"
   width="1544"
   height="500"
   viewBox="0 0 408.51667 132.29167"
   version="1.1"
   id="svg8"
   inkscape:version="0.92.5 (2060ec1f9f, 2020-04-08)"
   sodipodi:docname="wp-input-scanner_banner.svg">
  <defs
     id="defs2" />
  <sodipodi:namedview
     id="base"
     pagecolor="#ffffff"
     bordercolor="#666666"
     borderopacity="1.0"
     inkscape:pageopacity="0.0"
     inkscape:pageshadow="2"
     inkscape:zoom="1"
     inkscape:cx="691.86817"
     inkscape:cy="-4.6755129"
     inkscape:document-units="mm"
     inkscape:current-layer="layer1"
     showgrid="true"
     units="px"
     showguides="true"
     inkscape:guide-bbox="true"
     inkscape:window-width="3768"
     inkscape:window-height="2096"
     inkscape:window-x="72"
     inkscape:window-y="27"
     inkscape:window-maximized="1">
    <sodipodi:guide
       position="173.68006,72.193454"
       orientation="1,0"
       id="guide928"
       inkscape:locked="false" />
    <sodipodi:guide
       position="219.42829,66.145835"
       orientation="0,1"
       id="guide930"
       inkscape:locked="false"
       inkscape:label=""
       inkscape:color="rgb(0,0,255)" />
    <sodipodi:guide
       position="113.77084,39.687501"
       orientation="1,0"
       id="guide1167"
       inkscape:locked="false" />
    <inkscape:grid
       type="xygrid"
       id="grid1169"
       visible="true" />
    <sodipodi:guide
       position="191.82292,74.083335"
       orientation="1,0"
       id="guide4895"
       inkscape:locked="false" />
    <sodipodi:guide
       position="119.0625,76.729169"
       orientation="0,1"
       id="guide5028"
       inkscape:locked="false" />
    <sodipodi:guide
       position="354.54167,124.35417"
       orientation="1,0"
       id="guide5319"
       inkscape:locked="false" />
  </sodipodi:namedview>
  <metadata
     id="metadata5">
    <rdf:RDF>
      <cc:Work
         rdf:about="">
        <dc:format>image/svg+xml</dc:format>
        <dc:type
           rdf:resource="http://purl.org/dc/dcmitype/StillImage" />
        <dc:title></dc:title>
      </cc:Work>
    </rdf:RDF>
  </metadata>
  <g
     inkscape:groupmode="layer"
     id="layer3"
     inkscape:label="Layer 1"
     transform="translate(0,-67.708336)"
     style="display:inline">
    <path
       style="fill:#000007;fill-opacity:1;stroke:#000000;stroke-width:3.63834143;stroke-linecap:round;stroke-linejoin:round;stroke-miterlimit:4;stroke-dasharray:none;stroke-dashoffset:0;stroke-opacity:1"
       d="m 6.3675699,69.548019 -4.5154866,0.0124 v 4.832263 h 0.00879 L 1.9161673,104.43477 6.431654,104.42237 6.37636,74.392684 H 34.440277 V 69.560421 H 6.3675699 Z"
       id="rect817"
       inkscape:connector-curvature="0" />
    <path
       inkscape:connector-curvature="0"
       style="fill:#000007;fill-opacity:1;stroke:#000000;stroke-width:3.67706156;stroke-linecap:round;stroke-linejoin:round;stroke-miterlimit:4;stroke-dasharray:none;stroke-dashoffset:0;stroke-opacity:1"
       d="m 1.9417678,193.49149 0.02137,4.71958 4.722181,-0.009 -1.8e-5,-0.009 29.3576052,-0.1153 -0.0213,-4.71959 -29.3454822,0.11529 -0.05747,-29.3325 -4.722199,0.009 0.05748,29.3417 z"
       id="rect817-3" />
    <path
       inkscape:connector-curvature="0"
       style="fill:#000007;fill-opacity:1;stroke:#000000;stroke-width:3.63834143;stroke-linecap:round;stroke-linejoin:round;stroke-miterlimit:4;stroke-dasharray:none;stroke-dashoffset:0;stroke-opacity:1"
       d="m 402.14912,198.16862 4.51546,-0.0207 -0.009,-4.83226 -0.009,1e-5 -0.10834,-30.04195 -4.51545,0.0207 0.10828,30.02955 -28.06389,0.0495 0.009,4.83224 28.07268,-0.0496 z"
       id="rect817-0" />
    <path
       inkscape:connector-curvature="0"
       style="fill:#000007;fill-opacity:1;stroke:#000000;stroke-width:3.67706156;stroke-linecap:round;stroke-linejoin:round;stroke-miterlimit:4;stroke-dasharray:none;stroke-dashoffset:0;stroke-opacity:1"
       d="m 406.66458,74.322919 -0.0297,-4.719535 -4.72216,0.01734 3e-5,0.009 -29.35735,0.167136 0.0297,4.719544 29.34524,-0.167098 0.10932,29.332344 4.72218,-0.0177 -0.10927,-29.341543 z"
       id="rect817-3-4" />
    <rect
       style="opacity:0.5;fill:none;fill-opacity:1;stroke:#455a64;stroke-width:5.71042299;stroke-linecap:round;stroke-linejoin:round;stroke-miterlimit:4;stroke-dasharray:none;stroke-dashoffset:0;stroke-opacity:1"
       id="rect911"
       width="27.88726"
       height="20.403578"
       x="357.08148"
       y="87.552086" />
    <rect
       style="opacity:0.5;fill:none;fill-opacity:1;stroke:#455a64;stroke-width:5.71043873;stroke-linecap:round;stroke-linejoin:round;stroke-miterlimit:4;stroke-dasharray:none;stroke-dashoffset:0;stroke-opacity:1"
       id="rect911-7"
       width="27.887245"
       height="20.403698"
       x="357.45209"
       y="159.78333" />
    <rect
       style="opacity:0.5;fill:none;fill-opacity:1;stroke:#455a64;stroke-width:6.57342911;stroke-linecap:round;stroke-linejoin:round;stroke-miterlimit:4;stroke-dasharray:none;stroke-dashoffset:0;stroke-opacity:1"
       id="rect932"
       width="0.2263231"
       height="91.286407"
       x="18.081768"
       y="85.56459" />
    <rect
       style="opacity:0.5;fill:none;fill-opacity:1;stroke:#455a64;stroke-width:2.26644516;stroke-linecap:round;stroke-linejoin:round;stroke-miterlimit:4;stroke-dasharray:none;stroke-dashoffset:0;stroke-opacity:1"
       id="rect932-6"
       width="0.025784111"
       height="95.255333"
       x="25.809328"
       y="83.580208" />
    <rect
       style="opacity:0.5;fill:none;fill-opacity:1;stroke:#455a64;stroke-width:2.23401213;stroke-linecap:round;stroke-linejoin:round;stroke-miterlimit:4;stroke-dasharray:none;stroke-dashoffset:0;stroke-opacity:1"
       id="rect932-6-8"
       width="0.028064463"
       height="85.028679"
       x="31.871872"
       y="83.641991" />
    <rect
       style="opacity:0.5;fill:none;fill-opacity:1;stroke:#455a64;stroke-width:4.49298906;stroke-linecap:round;stroke-linejoin:round;stroke-miterlimit:4;stroke-dasharray:none;stroke-dashoffset:0;stroke-opacity:1"
       id="rect932-9"
       width="0.10392933"
       height="92.871765"
       x="39.940983"
       y="84.672874" />
    <rect
       style="opacity:0.5;fill:none;fill-opacity:1;stroke:#455a64;stroke-width:5.22640562;stroke-linecap:round;stroke-linejoin:round;stroke-miterlimit:4;stroke-dasharray:none;stroke-dashoffset:0;stroke-opacity:1"
       id="rect932-9-0"
       width="0.14147998"
       height="92.312874"
       x="50.20377"
       y="84.952316" />
    <rect
       style="opacity:0.5;fill:none;fill-opacity:1;stroke:#455a64;stroke-width:2.52877212;stroke-linecap:round;stroke-linejoin:round;stroke-miterlimit:4;stroke-dasharray:none;stroke-dashoffset:0;stroke-opacity:1"
       id="rect932-6-8-3"
       width="0.036182601"
       height="84.502693"
       x="59.495068"
       y="83.583336" />
    <rect
       style="opacity:0.5;fill:none;fill-opacity:1;stroke:#455a64;stroke-width:3.76648426;stroke-linecap:round;stroke-linejoin:round;stroke-miterlimit:4;stroke-dasharray:none;stroke-dashoffset:0;stroke-opacity:1"
       id="rect932-6-8-33"
       width="0.081440993"
       height="83.287598"
       x="66.064392"
       y="84.12854" />
    <rect
       style="opacity:0.5;fill:none;fill-opacity:1;stroke:#455a64;stroke-width:2.68529391;stroke-linecap:round;stroke-linejoin:round;stroke-miterlimit:4;stroke-dasharray:none;stroke-dashoffset:0;stroke-opacity:1"
       id="rect932-6-8-3-7"
       width="0.036182601"
       height="95.287247"
       x="72.385139"
       y="83.564186" />
    <rect
       style="opacity:0.5;fill:none;fill-opacity:1;stroke:#455a64;stroke-width:4.49298906;stroke-linecap:round;stroke-linejoin:round;stroke-miterlimit:4;stroke-dasharray:none;stroke-dashoffset:0;stroke-opacity:1"
       id="rect932-2"
       width="0.10392933"
       height="92.871765"
       x="79.42453"
       y="84.7369" />
    <rect
       style="opacity:0.5;fill:none;fill-opacity:1;stroke:#455a64;stroke-width:3.74949551;stroke-linecap:round;stroke-linejoin:round;stroke-miterlimit:4;stroke-dasharray:none;stroke-dashoffset:0;stroke-opacity:1"
       id="rect932-6-6"
       width="0.081440993"
       height="82.537941"
       x="89.654594"
       y="84.18882" />
    <rect
       style="opacity:0.5;fill:none;fill-opacity:1;stroke:#455a64;stroke-width:3.99998569;stroke-linecap:round;stroke-linejoin:round;stroke-miterlimit:4;stroke-dasharray:none;stroke-dashoffset:0;stroke-opacity:1"
       id="rect932-6-8-5"
       width="0.081440993"
       height="93.934448"
       x="95.607727"
       y="84.205574" />
    <path
       style="display:inline;opacity:0.5;fill:#455a64;fill-opacity:1;stroke:#455a64;stroke-width:1.60208082;stroke-linecap:round;stroke-linejoin:round;stroke-miterlimit:4;stroke-dasharray:none;stroke-dashoffset:0;stroke-opacity:1"
       d="m 332.15466,96.742344 2.64576,0.01797 0.13836,-20.37245 -2.64577,-0.01797 z m 2.9373,-3.948893 2.64577,0.01797 0.11141,-16.403792 -2.64577,-0.01797 z"
       id="rect4878-9"
       inkscape:connector-curvature="0" />
    <path
       inkscape:connector-curvature="0"
       style="display:inline;opacity:0.5;fill:#455a64;fill-opacity:1;stroke:#455a64;stroke-width:1.60208082;stroke-linecap:round;stroke-linejoin:round;stroke-miterlimit:4;stroke-dasharray:none;stroke-dashoffset:0;stroke-opacity:1"
       d="m 331.96418,124.78754 2.64577,0.0179 0.13837,-20.37246 -2.64579,-0.0179 z m 2.9373,-3.94889 2.64577,0.0179 0.11141,-16.4038 -2.64577,-0.0179 z"
       id="rect4878-0-3" />
    <rect
       style="display:inline;opacity:0.5;fill:#455a64;fill-opacity:1;stroke:#455a64;stroke-width:1;stroke-linecap:round;stroke-linejoin:round;stroke-miterlimit:4;stroke-dasharray:none;stroke-dashoffset:0;stroke-opacity:1"
       id="rect4945-4"
       width="15.874995"
       height="1.3229195"
       x="-89.192665"
       y="342.59357"
       transform="rotate(-89.610882)" />
    <rect
       style="display:inline;opacity:0.5;fill:#455a64;fill-opacity:1;stroke:#455a64;stroke-width:0.89160901;stroke-linecap:round;stroke-linejoin:round;stroke-miterlimit:4;stroke-dasharray:none;stroke-dashoffset:0;stroke-opacity:1"
       id="rect4947-3"
       width="3.9687159"
       height="6.3101015"
       x="-76.670334"
       y="345.44321"
       transform="matrix(0.00539891,-0.99998543,0.99996351,0.00854285,0,0)" />
    <rect
       style="display:inline;opacity:0.5;fill:#455a64;fill-opacity:1;stroke:#455a64;stroke-width:1;stroke-linecap:round;stroke-linejoin:round;stroke-miterlimit:4;stroke-dasharray:none;stroke-dashoffset:0;stroke-opacity:1"
       id="rect4952-7"
       width="5.2916665"
       height="5.2916665"
       x="-114.32809"
       y="351.854"
       transform="rotate(-89.610882)" />
    <rect
       style="display:inline;opacity:0.5;fill:#455a64;fill-opacity:1;stroke:#455a64;stroke-width:1;stroke-linecap:round;stroke-linejoin:round;stroke-miterlimit:4;stroke-dasharray:none;stroke-dashoffset:0;stroke-opacity:1"
       id="rect4956-2"
       width="26.458334"
       height="5.2916665"
       x="-135.49477"
       y="317.45816"
       transform="rotate(-89.610882)" />
    <rect
       style="display:inline;opacity:0.5;fill:#455a64;fill-opacity:1;stroke:#455a64;stroke-width:1;stroke-linecap:round;stroke-linejoin:round;stroke-miterlimit:4;stroke-dasharray:none;stroke-dashoffset:0;stroke-opacity:1"
       id="rect4958-2"
       width="5.2916665"
       height="5.2916665"
       x="-101.09892"
       y="320.104"
       transform="rotate(-89.610882)" />
    <rect
       style="display:inline;opacity:0.5;fill:#455a64;fill-opacity:1;stroke:#455a64;stroke-width:1;stroke-linecap:round;stroke-linejoin:round;stroke-miterlimit:4;stroke-dasharray:none;stroke-dashoffset:0;stroke-opacity:1"
       id="rect4962-2"
       width="5.2916665"
       height="5.2916665"
       x="-101.09892"
       y="341.27063"
       transform="rotate(-89.610882)" />
    <rect
       style="display:inline;opacity:0.5;fill:#455a64;fill-opacity:1;stroke:#455a64;stroke-width:1;stroke-linecap:round;stroke-linejoin:round;stroke-miterlimit:4;stroke-dasharray:none;stroke-dashoffset:0;stroke-opacity:1"
       id="rect4966-7"
       width="15.875"
       height="5.2916665"
       x="-127.55727"
       y="365.08313"
       transform="rotate(-89.610882)" />
    <rect
       style="display:inline;opacity:0.5;fill:#455a64;fill-opacity:1;stroke:#455a64;stroke-width:1;stroke-linecap:round;stroke-linejoin:round;stroke-miterlimit:4;stroke-dasharray:none;stroke-dashoffset:0;stroke-opacity:1"
       id="rect4968-5"
       width="5.2916665"
       height="15.875"
       x="-119.61977"
       y="298.93732"
       transform="rotate(-89.610882)" />
    <rect
       style="display:inline;opacity:0.5;fill:#455a64;fill-opacity:1;stroke:#455a64;stroke-width:1;stroke-linecap:round;stroke-linejoin:round;stroke-miterlimit:4;stroke-dasharray:none;stroke-dashoffset:0;stroke-opacity:1"
       id="rect4970-1"
       width="7.9375"
       height="5.2916665"
       x="-148.72392"
       y="312.16647"
       transform="rotate(-89.610882)" />
    <rect
       style="display:inline;opacity:0.5;fill:#455a64;fill-opacity:1;stroke:#455a64;stroke-width:1;stroke-linecap:round;stroke-linejoin:round;stroke-miterlimit:4;stroke-dasharray:none;stroke-dashoffset:0;stroke-opacity:1"
       id="rect4974-4"
       width="5.2916622"
       height="7.9375"
       x="-151.36974"
       y="357.14563"
       transform="rotate(-89.610882)" />
    <path
       style="display:inline;opacity:0.5;fill:#455a64;fill-opacity:1;stroke:#455a64;stroke-width:1.60208082;stroke-linecap:round;stroke-linejoin:round;stroke-miterlimit:4;stroke-dasharray:none;stroke-dashoffset:0;stroke-opacity:1"
       d="m 263.5667,144.43182 2.64577,0.0179 0.13835,-20.37246 -2.64577,-0.0179 z m 2.9373,-3.94889 2.64577,0.0179 0.11141,-16.40379 -2.64577,-0.0179 z"
       id="rect4878-6-1"
       inkscape:connector-curvature="0" />
    <rect
       style="display:inline;opacity:0.5;fill:#455a64;fill-opacity:1;stroke:#455a64;stroke-width:1;stroke-linecap:round;stroke-linejoin:round;stroke-miterlimit:4;stroke-dasharray:none;stroke-dashoffset:0;stroke-opacity:1"
       id="rect4945-2-7"
       width="15.874995"
       height="1.3229195"
       x="-137.34685"
       y="274.33109"
       transform="rotate(-89.610882)" />
    <rect
       style="display:inline;opacity:0.5;fill:#455a64;fill-opacity:1;stroke:#455a64;stroke-width:1;stroke-linecap:round;stroke-linejoin:round;stroke-miterlimit:4;stroke-dasharray:none;stroke-dashoffset:0;stroke-opacity:1"
       id="rect4958-4-1"
       width="5.2916665"
       height="5.2916665"
       x="-149.2531"
       y="251.84151"
       transform="rotate(-89.610882)" />
    <rect
       style="display:inline;opacity:0.5;fill:#455a64;fill-opacity:1;stroke:#455a64;stroke-width:1;stroke-linecap:round;stroke-linejoin:round;stroke-miterlimit:4;stroke-dasharray:none;stroke-dashoffset:0;stroke-opacity:1"
       id="rect4962-7-1"
       width="5.2916665"
       height="5.2916665"
       x="-149.2531"
       y="273.00815"
       transform="rotate(-89.610882)" />
    <rect
       style="display:inline;opacity:0.5;fill:#455a64;fill-opacity:1;stroke:#455a64;stroke-width:1;stroke-linecap:round;stroke-linejoin:round;stroke-miterlimit:4;stroke-dasharray:none;stroke-dashoffset:0;stroke-opacity:1"
       id="rect4958-9-1"
       width="5.2916665"
       height="5.2916665"
       x="-82.578072"
       y="316.13522"
       transform="rotate(-89.610882)" />
    <rect
       style="display:inline;opacity:0.5;fill:#455a64;fill-opacity:1;stroke:#455a64;stroke-width:1;stroke-linecap:round;stroke-linejoin:round;stroke-miterlimit:4;stroke-dasharray:none;stroke-dashoffset:0;stroke-opacity:1"
       id="rect4968-3-7"
       width="5.2916665"
       height="15.875"
       x="-101.09892"
       y="294.96857"
       transform="rotate(-89.610882)" />
    <path
       inkscape:connector-curvature="0"
       style="display:inline;opacity:0.5;fill:#455a64;fill-opacity:1;stroke:#455a64;stroke-width:1.60208082;stroke-linecap:round;stroke-linejoin:round;stroke-miterlimit:4;stroke-dasharray:none;stroke-dashoffset:0;stroke-opacity:1"
       d="m 222.51185,111.87308 -2.64578,-0.0179 -0.13834,20.37245 2.64578,0.0179 z m -2.93729,3.94889 -2.64577,-0.0179 -0.1114,16.4038 2.64577,0.0179 z"
       id="rect4878-0-4-9-0" />
    <rect
       style="display:inline;opacity:0.5;fill:#455a64;fill-opacity:1;stroke:#455a64;stroke-width:1;stroke-linecap:round;stroke-linejoin:round;stroke-miterlimit:4;stroke-dasharray:none;stroke-dashoffset:0;stroke-opacity:1"
       id="rect4964-2-4"
       width="5.2916665"
       height="23.8125"
       x="-122.26561"
       y="227.49983"
       transform="rotate(-89.610882)" />
    <rect
       style="display:inline;opacity:0.5;fill:#455a64;fill-opacity:1;stroke:#455a64;stroke-width:1;stroke-linecap:round;stroke-linejoin:round;stroke-miterlimit:4;stroke-dasharray:none;stroke-dashoffset:0;stroke-opacity:1"
       id="rect4972-8-0"
       width="13.229162"
       height="5.2916665"
       x="-140.78645"
       y="230.14565"
       transform="rotate(-89.610882)" />
    <rect
       style="display:inline;opacity:0.5;fill:#455a64;fill-opacity:1;stroke:#455a64;stroke-width:0.7135573;stroke-linecap:round;stroke-linejoin:round;stroke-miterlimit:4;stroke-dasharray:none;stroke-dashoffset:0;stroke-opacity:1"
       id="rect4974-3-8"
       width="5.2915716"
       height="4.0415587"
       x="-139.21396"
       y="236.24614"
       transform="matrix(0.0034578,-0.99999402,0.99991105,0.01333798,0,0)" />
    <path
       style="display:inline;opacity:0.5;fill:#455a64;fill-opacity:1;stroke:#455a64;stroke-width:1.60208082;stroke-linecap:round;stroke-linejoin:round;stroke-miterlimit:4;stroke-dasharray:none;stroke-dashoffset:0;stroke-opacity:1"
       d="m 284.90014,76.490186 0.0121,2.645813 20.37272,-0.09315 -0.0121,-2.645802 z m 3.98201,2.89225 0.0121,2.645792 16.404,-0.075 -0.0121,-2.645802 z"
       id="rect4878-01-5"
       inkscape:connector-curvature="0" />
    <path
       inkscape:connector-curvature="0"
       style="display:inline;opacity:0.5;fill:#455a64;fill-opacity:1;stroke:#455a64;stroke-width:1.60208082;stroke-linecap:round;stroke-linejoin:round;stroke-miterlimit:4;stroke-dasharray:none;stroke-dashoffset:0;stroke-opacity:1"
       d="m 256.85458,76.618403 0.0121,2.645822 20.3727,-0.09316 -0.0121,-2.645812 z m 3.98203,2.892239 0.0121,2.645803 16.40399,-0.075 -0.0122,-2.645815 z"
       id="rect4878-0-7-1" />
    <path
       inkscape:connector-curvature="0"
       style="display:inline;opacity:0.5;fill:#455a64;fill-opacity:1;stroke:#455a64;stroke-width:1.60208082;stroke-linecap:round;stroke-linejoin:round;stroke-miterlimit:4;stroke-dasharray:none;stroke-dashoffset:0;stroke-opacity:1"
       d="m 258.50983,91.427665 -0.0121,-2.645812 -20.37273,0.09315 0.0121,2.645823 z m -3.98202,-2.892239 -0.0121,-2.645793 -16.40402,0.07501 0.0121,2.645804 z"
       id="rect4878-0-4-8-6" />
    <rect
       style="display:inline;opacity:0.5;fill:#455a64;fill-opacity:1;stroke:#455a64;stroke-width:0.99999994;stroke-linecap:round;stroke-linejoin:round;stroke-miterlimit:4;stroke-dasharray:none;stroke-dashoffset:0;stroke-opacity:1"
       id="rect4945-9-6"
       width="15.874995"
       height="1.3229195"
       x="289.83908"
       y="87.581589"
       transform="rotate(-0.26196267)" />
    <rect
       style="display:inline;opacity:0.5;fill:#455a64;fill-opacity:1;stroke:#455a64;stroke-width:0.87257218;stroke-linecap:round;stroke-linejoin:round;stroke-miterlimit:4;stroke-dasharray:none;stroke-dashoffset:0;stroke-opacity:1"
       id="rect4947-1-2"
       width="3.9687321"
       height="6.0434985"
       x="301.60724"
       y="90.469543"
       transform="matrix(0.99999394,-0.00348112,0.00600497,0.99998197,0,0)" />
    <rect
       style="display:inline;opacity:0.5;fill:#455a64;fill-opacity:1;stroke:#455a64;stroke-width:0.99999994;stroke-linecap:round;stroke-linejoin:round;stroke-miterlimit:4;stroke-dasharray:none;stroke-dashoffset:0;stroke-opacity:1"
       id="rect4952-5-1"
       width="5.2916665"
       height="5.2916665"
       x="264.70367"
       y="96.841995"
       transform="rotate(-0.26196267)" />
    <rect
       style="display:inline;opacity:0.5;fill:#455a64;fill-opacity:1;stroke:#455a64;stroke-width:0.99999994;stroke-linecap:round;stroke-linejoin:round;stroke-miterlimit:4;stroke-dasharray:none;stroke-dashoffset:0;stroke-opacity:1"
       id="rect4960-4-9"
       width="5.2916665"
       height="2.6458333"
       x="264.70367"
       y="88.904495"
       transform="rotate(-0.26196267)" />
    <rect
       style="display:inline;opacity:0.5;fill:#455a64;fill-opacity:1;stroke:#455a64;stroke-width:0.99999994;stroke-linecap:round;stroke-linejoin:round;stroke-miterlimit:4;stroke-dasharray:none;stroke-dashoffset:0;stroke-opacity:1"
       id="rect4962-9-6"
       width="5.2916665"
       height="5.2916665"
       x="277.93283"
       y="86.258652"
       transform="rotate(-0.26196267)" />
    <path
       style="display:inline;opacity:0.5;fill:#455a64;fill-opacity:1;stroke:#455a64;stroke-width:1.57056105;stroke-linecap:round;stroke-linejoin:round;stroke-miterlimit:4;stroke-dasharray:none;stroke-dashoffset:0;stroke-opacity:1"
       d="m 333.63959,152.11043 v 2.64583 h 19.57916 v -2.64583 z m 3.81412,2.91042 v 2.64583 h 15.76504 v -2.64583 z"
       id="rect4878-8"
       inkscape:connector-curvature="0" />
    <path
       inkscape:connector-curvature="0"
       style="display:inline;opacity:0.5;fill:#455a64;fill-opacity:1;stroke:#455a64;stroke-width:1.60208082;stroke-linecap:round;stroke-linejoin:round;stroke-miterlimit:4;stroke-dasharray:none;stroke-dashoffset:0;stroke-opacity:1"
       d="m 305.59375,152.11042 v 2.64584 h 20.37292 v -2.64584 z m 3.96875,2.91042 v 2.64583 h 16.40417 v -2.64583 z"
       id="rect4878-0-0" />
    <path
       inkscape:connector-curvature="0"
       style="display:inline;opacity:0.5;fill:#455a64;fill-opacity:1;stroke:#455a64;stroke-width:1.60208082;stroke-linecap:round;stroke-linejoin:round;stroke-miterlimit:4;stroke-dasharray:none;stroke-dashoffset:0;stroke-opacity:1"
       d="m 307.18126,166.92709 v -2.64584 l -20.37292,2e-5 v 2.64584 z m -3.96875,-2.91041 v -2.64583 l -16.40417,1e-5 v 2.64583 z"
       id="rect4878-0-4-81" />
    <rect
       style="display:inline;opacity:0.5;fill:#455a64;fill-opacity:1;stroke:#455a64;stroke-width:0.9486835;stroke-linecap:round;stroke-linejoin:round;stroke-miterlimit:4;stroke-dasharray:none;stroke-dashoffset:0;stroke-opacity:1"
       id="rect4945-0"
       width="14.287501"
       height="1.3229195"
       x="338.93124"
       y="161.90001" />
    <rect
       style="display:inline;opacity:0.5;fill:#455a64;fill-opacity:1;stroke:#455a64;stroke-width:1;stroke-linecap:round;stroke-linejoin:round;stroke-miterlimit:4;stroke-dasharray:none;stroke-dashoffset:0;stroke-opacity:1"
       id="rect4952-2"
       width="5.2916665"
       height="5.2916665"
       x="313.79584"
       y="171.16045" />
    <rect
       style="display:inline;opacity:0.5;fill:#455a64;fill-opacity:1;stroke:#455a64;stroke-width:1;stroke-linecap:round;stroke-linejoin:round;stroke-miterlimit:4;stroke-dasharray:none;stroke-dashoffset:0;stroke-opacity:1"
       id="rect4954-9"
       width="5.2916665"
       height="37.041668"
       x="289.98334"
       y="110.30625" />
    <rect
       style="display:inline;opacity:0.5;fill:#455a64;fill-opacity:1;stroke:#455a64;stroke-width:1;stroke-linecap:round;stroke-linejoin:round;stroke-miterlimit:4;stroke-dasharray:none;stroke-dashoffset:0;stroke-opacity:1"
       id="rect4958-5"
       width="5.2916665"
       height="5.2916665"
       x="327.02499"
       y="139.41043" />
    <rect
       style="display:inline;opacity:0.5;fill:#455a64;fill-opacity:1;stroke:#455a64;stroke-width:1;stroke-linecap:round;stroke-linejoin:round;stroke-miterlimit:4;stroke-dasharray:none;stroke-dashoffset:0;stroke-opacity:1"
       id="rect4960-6"
       width="5.2916665"
       height="2.6458333"
       x="313.79584"
       y="163.22295" />
    <rect
       style="display:inline;opacity:0.5;fill:#455a64;fill-opacity:1;stroke:#455a64;stroke-width:1;stroke-linecap:round;stroke-linejoin:round;stroke-miterlimit:4;stroke-dasharray:none;stroke-dashoffset:0;stroke-opacity:1"
       id="rect4962-4"
       width="5.2916665"
       height="5.2916665"
       x="327.02499"
       y="160.57707" />
    <rect
       style="display:inline;opacity:0.5;fill:#455a64;fill-opacity:1;stroke:#455a64;stroke-width:1;stroke-linecap:round;stroke-linejoin:round;stroke-miterlimit:4;stroke-dasharray:none;stroke-dashoffset:0;stroke-opacity:1"
       id="rect4966-3"
       width="15.875"
       height="5.2916665"
       x="300.56665"
       y="179.09793" />
    <rect
       style="display:inline;opacity:0.5;fill:#455a64;fill-opacity:1;stroke:#455a64;stroke-width:0.81649661;stroke-linecap:round;stroke-linejoin:round;stroke-miterlimit:4;stroke-dasharray:none;stroke-dashoffset:0;stroke-opacity:1"
       id="rect4968-7"
       width="5.2916665"
       height="10.583335"
       x="308.50415"
       y="123.53542" />
    <rect
       style="display:inline;opacity:0.5;fill:#455a64;fill-opacity:1;stroke:#455a64;stroke-width:1;stroke-linecap:round;stroke-linejoin:round;stroke-miterlimit:4;stroke-dasharray:none;stroke-dashoffset:0;stroke-opacity:1"
       id="rect4970-9"
       width="7.9375"
       height="5.2916665"
       x="279.39999"
       y="131.47293" />
    <rect
       style="display:inline;opacity:0.5;fill:#455a64;fill-opacity:1;stroke:#455a64;stroke-width:1;stroke-linecap:round;stroke-linejoin:round;stroke-miterlimit:4;stroke-dasharray:none;stroke-dashoffset:0;stroke-opacity:1"
       id="rect4972-74"
       width="13.229162"
       height="5.2916665"
       x="276.75418"
       y="173.80627" />
    <rect
       style="display:inline;opacity:0.5;fill:#455a64;fill-opacity:1;stroke:#455a64;stroke-width:0.70710826;stroke-linecap:round;stroke-linejoin:round;stroke-miterlimit:4;stroke-dasharray:none;stroke-dashoffset:0;stroke-opacity:1"
       id="rect4974-9"
       width="5.2916622"
       height="3.9687667"
       x="276.75418"
       y="180.42084" />
    <rect
       style="display:inline;opacity:0.5;fill:#455a64;fill-opacity:1;stroke:#455a64;stroke-width:1;stroke-linecap:round;stroke-linejoin:round;stroke-miterlimit:4;stroke-dasharray:none;stroke-dashoffset:0;stroke-opacity:1"
       id="rect4958-9-17"
       width="5.2916665"
       height="5.2916665"
       x="345.54584"
       y="135.44168" />
    <rect
       style="display:inline;opacity:0.5;fill:#455a64;fill-opacity:1;stroke:#455a64;stroke-width:0.99999994;stroke-linecap:round;stroke-linejoin:round;stroke-miterlimit:4;stroke-dasharray:none;stroke-dashoffset:0;stroke-opacity:1"
       id="rect4945-9-60"
       width="15.874995"
       height="1.3229195"
       x="114.02205"
       y="-342.56796"
       transform="rotate(89.34892)" />
    <rect
       style="display:inline;opacity:0.5;fill:none;fill-opacity:1;stroke:#455a64;stroke-width:5.22640562;stroke-linecap:round;stroke-linejoin:round;stroke-miterlimit:4;stroke-dasharray:none;stroke-dashoffset:0;stroke-opacity:1"
       id="rect932-9-0-3"
       width="0.14147998"
       height="92.312874"
       x="105.50169"
       y="84.952309" />
    <rect
       style="display:inline;opacity:0.5;fill:none;fill-opacity:1;stroke:#455a64;stroke-width:2.52877212;stroke-linecap:round;stroke-linejoin:round;stroke-miterlimit:4;stroke-dasharray:none;stroke-dashoffset:0;stroke-opacity:1"
       id="rect932-6-8-3-9"
       width="0.036182601"
       height="84.502693"
       x="114.79298"
       y="83.583336" />
    <rect
       style="display:inline;opacity:0.5;fill:none;fill-opacity:1;stroke:#455a64;stroke-width:3.76648426;stroke-linecap:round;stroke-linejoin:round;stroke-miterlimit:4;stroke-dasharray:none;stroke-dashoffset:0;stroke-opacity:1"
       id="rect932-6-8-33-4"
       width="0.081440993"
       height="83.287598"
       x="121.3623"
       y="84.128532" />
    <rect
       style="display:inline;opacity:0.5;fill:none;fill-opacity:1;stroke:#455a64;stroke-width:2.68529391;stroke-linecap:round;stroke-linejoin:round;stroke-miterlimit:4;stroke-dasharray:none;stroke-dashoffset:0;stroke-opacity:1"
       id="rect932-6-8-3-7-1"
       width="0.036182601"
       height="95.287247"
       x="127.68305"
       y="83.564186" />
    <rect
       style="display:inline;opacity:0.5;fill:none;fill-opacity:1;stroke:#455a64;stroke-width:4.49298906;stroke-linecap:round;stroke-linejoin:round;stroke-miterlimit:4;stroke-dasharray:none;stroke-dashoffset:0;stroke-opacity:1"
       id="rect932-2-5"
       width="0.10392933"
       height="92.871773"
       x="134.72244"
       y="84.7369" />
    <rect
       style="display:inline;opacity:0.5;fill:none;fill-opacity:1;stroke:#455a64;stroke-width:3.74949551;stroke-linecap:round;stroke-linejoin:round;stroke-miterlimit:4;stroke-dasharray:none;stroke-dashoffset:0;stroke-opacity:1"
       id="rect932-6-6-4"
       width="0.081440993"
       height="82.537949"
       x="144.9525"
       y="84.18882" />
    <rect
       style="display:inline;opacity:0.5;fill:none;fill-opacity:1;stroke:#455a64;stroke-width:3.99998569;stroke-linecap:round;stroke-linejoin:round;stroke-miterlimit:4;stroke-dasharray:none;stroke-dashoffset:0;stroke-opacity:1"
       id="rect932-6-8-5-1"
       width="0.081440993"
       height="93.934448"
       x="150.90564"
       y="84.205574" />
  </g>
  <g
     inkscape:groupmode="layer"
     id="layer4"
     inkscape:label="arrow"
     style="display:inline">
    <path
       style="fill:#d50000;fill-opacity:1;stroke:#000005;stroke-width:0;stroke-linecap:butt;stroke-linejoin:round;stroke-miterlimit:4;stroke-dasharray:none;stroke-dashoffset:0;stroke-opacity:1;opacity:0.5"
       d="m 201.08333,66.145833 v 40.398057 l -14.16727,-8.31094 -2.74068,3.40667 19.32646,11.33747 0.0142,-0.0176 0.0117,0.017 19.34819,-11.30753 -2.44434,-3.58009 -13.25434,7.74646 V 66.145833 Z"
       id="rect5009"
       inkscape:connector-curvature="0" />
  </g>
  <g
     inkscape:groupmode="layer"
     id="layer1"
     inkscape:label="schrift"
     transform="translate(0,-67.708336)"
     style="display:inline">
    <g
       aria-label="WP Input Scanner"
       transform="matrix(1.1583458,0,0,1.3689138,-103.46688,623.55963)"
       style="font-style:normal;font-weight:normal;font-size:40px;line-height:1.25;font-family:sans-serif;letter-spacing:0px;word-spacing:0px;display:inline;fill:#000000;fill-opacity:1;stroke:none"
       id="flowRoot5636">
      <path
         d="m 140.94858,-386.57036 h 3.94531 v 29.16016 h -3.94531 z"
         id="path5648"
         inkscape:connector-curvature="0" />
      <path
         d="m 170.7728,-370.61333 v 13.20313 h -3.59375 v -13.08594 q 0,-3.10547 -1.21094,-4.64844 -1.21094,-1.54297 -3.63281,-1.54297 -2.91016,0 -4.58985,1.85547 -1.67968,1.85547 -1.67968,5.05859 v 12.36329 h -3.61328 v -21.875 h 3.61328 v 3.39843 q 1.28906,-1.97265 3.02734,-2.94922 1.75781,-0.97656 4.04297,-0.97656 3.76953,0 5.70312,2.34375 1.9336,2.32422 1.9336,6.85547 z"
         id="path5650"
         inkscape:connector-curvature="0" />
      <path
         d="m 181.41733,-360.69145 v 11.60156 h -3.61328 v -30.19531 h 3.61328 v 3.32031 q 1.13281,-1.95313 2.85156,-2.89063 1.73828,-0.95703 4.14063,-0.95703 3.98437,0 6.46484,3.16406 2.5,3.16407 2.5,8.32032 0,5.15625 -2.5,8.32031 -2.48047,3.16406 -6.46484,3.16406 -2.40235,0 -4.14063,-0.9375 -1.71875,-0.95703 -2.85156,-2.91015 z m 12.22656,-7.63672 q 0,-3.96485 -1.64062,-6.21094 -1.6211,-2.26563 -4.47266,-2.26563 -2.85156,0 -4.49219,2.26563 -1.62109,2.24609 -1.62109,6.21094 0,3.96484 1.62109,6.23047 1.64063,2.24609 4.49219,2.24609 2.85156,0 4.47266,-2.24609 1.64062,-2.26563 1.64062,-6.23047 z"
         id="path5652"
         inkscape:connector-curvature="0" />
      <path
         d="m 202.9603,-366.04302 v -13.24218 h 3.59375 v 13.10546 q 0,3.10547 1.21094,4.66797 1.21093,1.54297 3.63281,1.54297 2.91015,0 4.58984,-1.85547 1.69922,-1.85547 1.69922,-5.05859 v -12.40234 h 3.59375 v 21.875 h -3.59375 v -3.35938 q -1.30859,1.99219 -3.04687,2.96875 -1.71875,0.95703 -4.00391,0.95703 -3.76953,0 -5.72266,-2.34375 -1.95312,-2.34375 -1.95312,-6.85547 z m 9.04297,-13.76953 z"
         id="path5654"
         inkscape:connector-curvature="0" />
      <path
         d="m 232.23764,-385.49614 v 6.21094 h 7.40235 v 2.79296 h -7.40235 v 11.875 q 0,2.67579 0.72266,3.4375 0.74219,0.76172 2.98828,0.76172 h 3.69141 v 3.00782 h -3.69141 q -4.16016,0 -5.74219,-1.54297 -1.58203,-1.5625 -1.58203,-5.66407 v -11.875 h -2.63672 v -2.79296 h 2.63672 v -6.21094 z"
         id="path5656"
         inkscape:connector-curvature="0" />
      <path
         d="m 274.71811,-385.61333 v 3.84766 q -2.24609,-1.07422 -4.23828,-1.60157 -1.99219,-0.52734 -3.84766,-0.52734 -3.22265,0 -4.98047,1.25 -1.73828,1.25 -1.73828,3.55469 0,1.93359 1.15235,2.92969 1.17187,0.97656 4.41406,1.58203 l 2.38281,0.48828 q 4.41406,0.83984 6.50391,2.96875 2.10937,2.10937 2.10937,5.66406 0,4.23828 -2.85156,6.42578 -2.83203,2.1875 -8.32031,2.1875 -2.07031,0 -4.41406,-0.46875 -2.32422,-0.46875 -4.82422,-1.38672 v -4.0625 q 2.40234,1.34766 4.70703,2.03125 2.30469,0.6836 4.53125,0.6836 3.3789,0 5.21484,-1.32813 1.83594,-1.32812 1.83594,-3.78906 0,-2.14844 -1.32813,-3.35938 -1.30859,-1.21093 -4.3164,-1.8164 l -2.40235,-0.46875 q -4.41406,-0.87891 -6.38671,-2.75391 -1.97266,-1.875 -1.97266,-5.21484 0,-3.86719 2.71484,-6.09375 2.73438,-2.22656 7.51953,-2.22656 2.05079,0 4.17969,0.37109 2.12891,0.37109 4.35547,1.11328 z"
         id="path5658"
         inkscape:connector-curvature="0" />
      <path
         d="m 298.2142,-378.44536 v 3.35937 q -1.52343,-0.83984 -3.0664,-1.25 -1.52344,-0.42968 -3.08594,-0.42968 -3.49609,0 -5.42969,2.22656 -1.93359,2.20703 -1.93359,6.21094 0,4.0039 1.93359,6.23047 1.9336,2.20703 5.42969,2.20703 1.5625,0 3.08594,-0.41016 1.54297,-0.42969 3.0664,-1.26953 v 3.32031 q -1.5039,0.70313 -3.125,1.05469 -1.60156,0.35156 -3.41796,0.35156 -4.94141,0 -7.85157,-3.10547 -2.91015,-3.10547 -2.91015,-8.3789 0,-5.35157 2.92968,-8.41797 2.94922,-3.06641 8.06641,-3.06641 1.66016,0 3.24219,0.35156 1.58203,0.33204 3.0664,1.01563 z"
         id="path5660"
         inkscape:connector-curvature="0" />
      <path
         d="m 314.40561,-368.4063 q -4.35547,0 -6.03516,0.9961 -1.67968,0.99609 -1.67968,3.39843 0,1.91407 1.25,3.04688 1.26953,1.11328 3.4375,1.11328 2.98828,0 4.78515,-2.10938 1.81641,-2.1289 1.81641,-5.64453 v -0.80078 z m 7.16797,-1.48437 v 12.48047 h -3.59375 v -3.32032 q -1.23047,1.99219 -3.06641,2.94922 -1.83593,0.9375 -4.49218,0.9375 -3.35938,0 -5.35157,-1.875 -1.97265,-1.89453 -1.97265,-5.05859 0,-3.69141 2.46093,-5.56641 2.48047,-1.875 7.38282,-1.875 h 5.03906 v -0.35156 q 0,-2.48047 -1.64063,-3.82813 -1.62109,-1.36718 -4.57031,-1.36718 -1.875,0 -3.65234,0.44922 -1.77735,0.44921 -3.41797,1.34765 v -3.32031 q 1.97266,-0.76172 3.82812,-1.13281 1.85547,-0.39063 3.61329,-0.39063 4.74609,0 7.08984,2.46094 2.34375,2.46094 2.34375,7.46094 z"
         id="path5662"
         inkscape:connector-curvature="0" />
      <path
         d="m 347.15952,-370.61333 v 13.20313 h -3.59375 v -13.08594 q 0,-3.10547 -1.21094,-4.64844 -1.21094,-1.54297 -3.63281,-1.54297 -2.91016,0 -4.58985,1.85547 -1.67968,1.85547 -1.67968,5.05859 v 12.36329 h -3.61329 v -21.875 h 3.61329 v 3.39843 q 1.28906,-1.97265 3.02734,-2.94922 1.75781,-0.97656 4.04297,-0.97656 3.76953,0 5.70312,2.34375 1.9336,2.32422 1.9336,6.85547 z"
         id="path5664"
         inkscape:connector-curvature="0" />
      <path
         d="m 372.51108,-370.61333 v 13.20313 h -3.59375 v -13.08594 q 0,-3.10547 -1.21094,-4.64844 -1.21094,-1.54297 -3.63281,-1.54297 -2.91016,0 -4.58984,1.85547 -1.67969,1.85547 -1.67969,5.05859 v 12.36329 h -3.61328 v -21.875 h 3.61328 v 3.39843 q 1.28906,-1.97265 3.02734,-2.94922 1.75781,-0.97656 4.04297,-0.97656 3.76953,0 5.70313,2.34375 1.93359,2.32422 1.93359,6.85547 z"
         id="path5666"
         inkscape:connector-curvature="0" />
      <path
         d="m 398.38999,-369.24614 v 1.75781 h -16.52344 q 0.23437,3.71094 2.22656,5.66406 2.01172,1.9336 5.58594,1.9336 2.07031,0 4.0039,-0.50782 1.95313,-0.50781 3.86719,-1.52343 v 3.39843 q -1.93359,0.82032 -3.96484,1.25 -2.03125,0.42969 -4.1211,0.42969 -5.23437,0 -8.30078,-3.04687 -3.04687,-3.04688 -3.04687,-8.24219 0,-5.37109 2.89062,-8.51563 2.91016,-3.16406 7.83203,-3.16406 4.41407,0 6.97266,2.85156 2.57813,2.83204 2.57813,7.71485 z m -3.59375,-1.05469 q -0.0391,-2.94922 -1.66016,-4.70703 -1.60156,-1.75781 -4.25781,-1.75781 -3.00782,0 -4.82422,1.69922 -1.79688,1.69921 -2.07031,4.78515 z"
         id="path5668"
         inkscape:connector-curvature="0" />
      <path
         d="m 416.9642,-375.92583 q -0.60546,-0.35156 -1.32812,-0.50781 -0.70313,-0.17578 -1.5625,-0.17578 -3.04688,0 -4.6875,1.99218 -1.62109,1.97266 -1.62109,5.6836 v 11.52344 h -3.61329 v -21.875 h 3.61329 v 3.39843 q 1.13281,-1.99218 2.94921,-2.94922 1.81641,-0.97656 4.41407,-0.97656 0.37109,0 0.82031,0.0586 0.44922,0.0391 0.99609,0.13671 z"
         id="path5670"
         inkscape:connector-curvature="0" />
    </g>
  </g>
</svg>
